<svg width="155" height="35" viewBox="0 0 155 35" fill="none" xmlns="http://www.w3.org/2000/svg">
<path d="M5.96619 15.856H22.7182V21.136H5.96619V15.856ZM6.49419 34H0.254188V0.399998H24.7822V5.632H6.49419V34ZM40.8167 34V0.399998H47.0567V28.72H64.6247V34H40.8167ZM93.5303 34.48C88.9223 34.48 85.3063 33.184 82.6823 30.592C80.0903 28 78.7943 24.256 78.7943 19.36V0.399998H85.0343V19.12C85.0343 22.576 85.7703 25.088 87.2423 26.656C88.7463 28.224 90.8583 29.008 93.5783 29.008C96.2983 29.008 98.3943 28.224 99.8663 26.656C101.338 25.088 102.074 22.576 102.074 19.12V0.399998H108.218V19.36C108.218 24.256 106.906 28 104.282 30.592C101.69 33.184 98.1063 34.48 93.5303 34.48ZM122.409 34L136.569 14.512V19.216L123.081 0.399998H130.137L140.169 14.32L137.289 14.368L147.225 0.399998H153.993L140.601 18.88V14.368L154.857 34H147.657L137.097 19.216H139.929L129.513 34H122.409Z" fill="white"/>
</svg>
